<?xml version="1.0" standalone="no"?>
<!DOCTYPE svg PUBLIC "-//W3C//DTD SVG 20010904//EN"
 "http://www.w3.org/TR/2001/REC-SVG-20010904/DTD/svg10.dtd">
<svg version="1.0" xmlns="http://www.w3.org/2000/svg"
 width="909.000000pt" height="909.000000pt" viewBox="0 0 909.000000 909.000000"
 preserveAspectRatio="xMidYMid meet">
<metadata>
Created by potrace 1.14, written by Peter Selinger 2001-2017
</metadata>
<g transform="translate(0.000000,909.000000) scale(0.100000,-0.100000)"
fill="#000000" stroke="none">
<path d="M3190 9071 c0 -10 -12 -12 -50 -8 -30 3 -50 2 -50 -4 0 -6 -5 -7 -12
-3 -19 12 -145 4 -167 -10 -10 -6 -12 -5 -7 2 4 7 2 12 -3 12 -6 0 -11 -4 -11
-10 0 -12 -22 -9 -32 5 -5 6 -8 5 -8 -3 0 -8 -10 -13 -22 -12 -13 1 -25 1 -28
0 -3 -2 -23 -3 -45 -4 -22 -1 -45 -4 -50 -8 -6 -3 -22 -5 -37 -4 -14 1 -24 -3
-21 -8 4 -5 -1 -7 -10 -3 -10 3 -17 3 -17 -2 0 -4 -6 -8 -12 -8 -7 -1 -33 -2
-58 -4 -25 -1 -48 -7 -52 -13 -5 -7 -8 -7 -8 2 0 10 -4 9 -16 -2 -8 -9 -19
-14 -24 -11 -5 3 -11 1 -14 -3 -3 -5 -19 -8 -36 -7 -16 1 -30 -2 -30 -6 0 -4
-9 -6 -19 -4 -11 2 -22 -3 -25 -11 -3 -9 -11 -12 -16 -9 -6 4 -17 1 -25 -5
-11 -9 -15 -9 -15 -1 0 9 -5 9 -20 1 -11 -6 -20 -7 -20 -3 0 4 -6 -1 -12 -10
-7 -9 -22 -18 -33 -20 -11 -1 -26 -7 -34 -11 -11 -7 -12 -6 -6 5 7 11 6 12 -7
2 -8 -7 -19 -9 -23 -5 -5 4 -5 2 -2 -4 6 -10 -17 -19 -61 -24 -4 -1 -14 -8
-23 -16 -9 -8 -20 -14 -25 -13 -20 3 -35 -2 -29 -10 3 -6 -4 -8 -15 -6 -11 2
-18 0 -15 -6 6 -8 1 -10 -37 -13 -7 -1 -18 -8 -25 -16 -7 -8 -13 -10 -13 -5 0
6 -4 4 -8 -2 -5 -7 -20 -14 -34 -15 -15 -1 -25 -5 -23 -8 2 -3 -5 -12 -17 -19
-16 -10 -19 -10 -12 1 6 10 5 11 -8 1 -8 -7 -17 -10 -21 -7 -3 3 -8 -3 -11
-14 -5 -14 -14 -19 -31 -17 -13 1 -22 -1 -20 -5 2 -4 -8 -13 -23 -21 -15 -8
-29 -16 -32 -20 -3 -3 -22 -13 -43 -23 -20 -9 -35 -21 -32 -27 4 -5 -5 -9 -19
-9 -14 0 -26 -4 -26 -10 0 -5 -16 -17 -35 -26 -19 -9 -35 -20 -35 -25 0 -5 -6
-9 -13 -9 -8 0 -22 -9 -32 -20 -10 -11 -21 -17 -25 -15 -4 3 -11 -2 -14 -11
-3 -8 -10 -13 -15 -10 -5 3 -12 -1 -15 -10 -3 -8 -10 -12 -16 -9 -6 3 -7 0 -4
-9 4 -10 -2 -17 -20 -22 -15 -3 -23 -11 -19 -17 4 -6 0 -8 -11 -4 -9 4 -15 3
-13 -1 3 -4 -1 -13 -9 -20 -8 -7 -14 -10 -14 -6 0 3 -13 -8 -29 -25 -16 -17
-34 -31 -41 -31 -6 0 -8 -4 -5 -10 3 -5 -1 -10 -9 -10 -9 0 -16 -4 -16 -10 0
-5 -8 -10 -17 -10 -14 0 -15 -2 -4 -9 11 -7 8 -11 -10 -17 -13 -4 -27 -7 -31
-6 -4 1 -4 -6 -1 -15 4 -10 2 -14 -4 -10 -5 3 -16 -5 -23 -18 -7 -13 -17 -22
-22 -19 -4 3 -8 -2 -8 -10 0 -8 -5 -18 -12 -22 -7 -4 -8 -3 -4 4 4 7 5 12 1
12 -3 0 -10 -12 -15 -26 -6 -14 -14 -22 -20 -19 -5 3 -10 1 -10 -4 0 -6 -15
-26 -34 -45 -18 -20 -36 -42 -40 -51 -3 -9 -10 -13 -16 -10 -5 3 -11 1 -11 -4
-1 -6 -2 -17 -3 -23 -1 -7 -7 -12 -14 -10 -7 1 -12 -4 -12 -11 0 -7 -9 -18
-20 -25 -11 -7 -20 -18 -20 -25 0 -7 -13 -27 -29 -45 -17 -17 -27 -32 -24 -32
4 0 -1 -6 -12 -13 -11 -9 -15 -19 -10 -27 5 -9 4 -11 -3 -6 -7 4 -12 2 -12 -4
0 -6 -4 -9 -9 -5 -6 3 -8 -4 -6 -15 2 -11 1 -18 -4 -16 -4 3 -15 -8 -25 -25
-9 -16 -22 -29 -27 -29 -6 0 -8 -4 -4 -10 8 -12 -16 -50 -32 -50 -7 0 -10 -7
-7 -15 4 -8 1 -15 -5 -15 -6 0 -8 -7 -4 -17 4 -11 3 -14 -5 -9 -7 4 -12 1 -12
-8 0 -9 -4 -16 -10 -16 -5 0 -6 -8 -3 -17 5 -13 2 -15 -11 -10 -11 4 -16 2
-14 -6 3 -19 -12 -57 -23 -57 -6 0 -7 -4 -4 -10 3 -5 2 -10 -4 -10 -5 0 -12
-13 -16 -30 -4 -16 -11 -30 -16 -30 -5 0 -9 -7 -9 -16 0 -9 -8 -23 -17 -31
-10 -8 -12 -11 -4 -8 9 5 8 0 -4 -18 -9 -15 -13 -32 -9 -38 5 -9 2 -10 -10 -6
-10 4 -15 3 -11 -3 3 -6 1 -10 -6 -10 -8 0 -8 -4 1 -15 7 -9 8 -15 2 -15 -5 0
-13 -11 -16 -25 -4 -14 -10 -24 -14 -21 -4 2 -9 -7 -10 -22 -4 -49 -10 -67
-19 -65 -5 1 -10 -8 -10 -20 -1 -12 -7 -23 -12 -25 -5 -2 -8 -9 -5 -17 3 -7 0
-16 -5 -20 -6 -3 -9 -11 -6 -16 4 -5 2 -9 -4 -9 -5 0 -8 -9 -6 -20 2 -11 0
-20 -5 -20 -5 0 -7 -9 -5 -20 2 -11 -1 -20 -7 -20 -6 0 -8 -3 -5 -6 3 -4 1
-16 -6 -28 -6 -11 -12 -31 -12 -43 0 -12 -4 -25 -8 -29 -4 -4 -7 -16 -7 -26 0
-13 -4 -17 -13 -12 -9 6 -9 4 1 -8 7 -9 9 -19 4 -22 -5 -3 -9 -18 -9 -33 0
-15 -6 -29 -12 -31 -6 -2 -11 -8 -11 -13 0 -6 6 -7 13 -3 9 6 9 5 0 -7 -7 -9
-15 -26 -17 -40 -3 -13 -5 -24 -6 -24 -1 0 -3 -8 -5 -17 -2 -10 2 -18 8 -18 8
0 8 -3 2 -8 -9 -6 -15 -48 -16 -114 0 -10 -4 -20 -9 -23 -5 -3 -7 -12 -3 -20
3 -8 1 -15 -5 -15 -5 0 -8 -12 -6 -26 1 -15 -1 -37 -6 -50 -6 -15 -5 -26 1
-30 6 -4 6 -11 -2 -20 -9 -11 -9 -14 1 -14 10 0 10 -3 0 -15 -6 -8 -9 -19 -5
-25 3 -5 1 -10 -5 -10 -7 0 -8 -6 -1 -18 5 -10 6 -24 2 -31 -4 -7 -6 -24 -3
-38 4 -20 2 -24 -9 -18 -11 7 -12 6 -4 -6 12 -17 13 -39 1 -58 -5 -8 -3 -16 5
-22 12 -7 12 -9 0 -9 -11 0 -10 -4 5 -16 10 -8 14 -13 8 -10 -16 8 -23 -14
-14 -39 4 -11 3 -28 -2 -37 -6 -12 -5 -18 2 -18 6 0 8 -5 3 -12 -10 -17 -10
-39 -1 -60 5 -10 3 -20 -3 -24 -8 -4 -7 -9 2 -15 8 -5 10 -9 4 -9 -5 0 -10
-11 -10 -25 0 -14 5 -25 10 -25 6 0 3 -5 -5 -10 -13 -9 -13 -10 0 -10 13 0 13
-1 0 -10 -8 -5 -10 -10 -5 -10 6 0 11 -9 11 -20 0 -11 -4 -20 -8 -20 -5 0 -1
-16 7 -36 11 -28 12 -34 2 -25 -10 8 -14 7 -14 -4 0 -8 3 -15 6 -15 4 0 6 -34
6 -76 0 -49 4 -79 13 -86 9 -8 9 -14 1 -24 -9 -11 -8 -14 2 -14 11 0 11 -2 -1
-10 -8 -5 -10 -10 -4 -10 12 0 11 -41 -1 -59 -3 -6 -1 -11 6 -11 8 0 8 -4 -2
-16 -10 -13 -10 -17 0 -24 9 -5 10 -9 2 -11 -6 -2 -12 -18 -14 -36 -1 -17 -5
-29 -8 -27 -4 2 -7 -9 -7 -24 0 -237 -7 -412 -16 -412 -8 0 -8 -2 0 -8 14 -10
14 -103 0 -95 -7 4 -6 1 1 -8 14 -17 13 -150 -1 -142 -5 4 -6 1 0 -8 5 -8 10
-70 10 -139 4 -290 7 -350 16 -350 6 0 5 -6 -2 -15 -10 -12 -10 -15 2 -15 7 0
14 -9 14 -20 0 -11 -4 -20 -9 -20 -5 0 -4 -6 2 -13 6 -8 8 -17 4 -20 -3 -4 -1
-7 6 -7 9 0 9 -5 1 -20 -7 -14 -8 -20 0 -20 6 0 8 -12 5 -27 -2 -15 1 -30 7
-34 7 -4 12 -34 13 -68 1 -33 4 -63 7 -67 4 -3 4 -12 1 -20 -3 -8 1 -14 8 -14
9 0 10 -3 4 -8 -14 -10 -16 -44 -2 -35 6 4 8 0 4 -10 -3 -9 -2 -17 4 -19 5 -2
10 -21 12 -43 1 -22 9 -46 17 -53 8 -8 9 -11 3 -7 -7 3 -13 1 -13 -4 0 -6 4
-11 8 -11 8 0 12 -14 13 -53 0 -11 5 -15 12 -10 8 4 8 1 -1 -9 -9 -11 -10 -18
-2 -23 5 -3 10 -17 10 -31 0 -14 4 -22 10 -19 10 6 13 -12 13 -67 0 -16 4 -28
9 -28 5 0 6 -4 3 -10 -3 -5 -1 -10 4 -10 6 0 11 -7 11 -15 0 -8 6 -15 13 -15
9 0 9 -2 -1 -9 -11 -7 -11 -11 0 -22 16 -15 18 -21 18 -45 0 -8 3 -13 8 -10 4
2 8 -14 9 -36 1 -23 6 -44 12 -47 5 -4 15 -28 21 -54 7 -26 17 -47 22 -47 5 0
6 -4 3 -10 -3 -5 -2 -10 3 -10 5 0 8 -11 7 -25 -2 -14 0 -23 4 -21 4 3 13 -10
20 -27 7 -18 20 -50 29 -72 9 -22 16 -43 15 -47 -2 -4 6 -12 16 -17 13 -7 17
-18 14 -36 -3 -15 -1 -25 6 -25 6 0 11 -7 11 -15 0 -8 5 -15 10 -15 6 0 10 -9
10 -20 0 -11 5 -20 11 -20 5 0 7 -4 4 -10 -3 -5 0 -10 8 -10 9 0 13 -10 12
-30 -1 -16 2 -27 6 -25 4 3 10 -2 13 -11 3 -8 11 -12 17 -8 8 4 8 1 1 -13 -9
-15 -7 -23 9 -36 10 -9 19 -23 19 -31 0 -8 6 -16 14 -19 8 -3 17 -19 21 -35 3
-16 15 -38 25 -50 10 -11 16 -22 13 -26 -3 -3 2 -8 11 -12 9 -3 16 -14 16 -23
0 -9 9 -23 20 -31 11 -8 20 -25 20 -37 0 -16 4 -21 15 -17 11 5 13 2 9 -10 -4
-10 0 -18 11 -22 13 -5 14 -9 3 -15 -9 -6 -7 -9 9 -9 16 0 21 -4 17 -15 -4 -8
1 -17 10 -21 9 -3 13 -10 10 -15 -3 -5 0 -9 5 -9 6 0 11 -7 11 -16 0 -8 4 -13
9 -10 5 3 14 -8 21 -24 7 -17 16 -30 21 -30 4 0 11 -9 14 -20 3 -11 13 -20 21
-20 8 0 12 -4 9 -10 -3 -5 -2 -10 3 -10 6 0 8 -10 5 -22 -4 -19 -3 -20 6 -8
10 14 16 7 12 -14 -1 -5 5 -6 13 -3 9 4 15 3 14 -1 -4 -15 14 -52 23 -47 5 4
9 -1 9 -9 0 -9 5 -16 10 -16 6 0 10 -7 10 -16 0 -8 4 -13 9 -10 9 6 77 -84 73
-97 -1 -5 2 -6 7 -2 6 3 16 -3 23 -15 7 -11 18 -20 25 -20 7 0 10 -6 7 -14 -3
-9 3 -17 15 -21 12 -3 19 -11 16 -16 -4 -5 -1 -9 5 -9 6 0 18 -7 26 -15 9 -8
13 -15 9 -15 -4 0 0 -7 9 -15 8 -8 20 -15 26 -15 6 0 9 -3 7 -7 -2 -5 4 -16
15 -25 10 -10 18 -15 18 -10 0 4 9 -8 20 -25 11 -18 27 -33 35 -33 9 0 13 -4
10 -10 -6 -9 8 -14 28 -11 5 1 6 -3 3 -8 -4 -5 3 -16 14 -24 11 -7 17 -17 12
-21 -4 -4 -2 -7 3 -6 18 4 38 0 32 -6 -8 -8 16 -33 25 -27 5 2 8 -3 8 -12 0
-9 4 -14 8 -11 5 3 19 -6 30 -19 12 -14 27 -25 33 -25 5 0 7 -4 4 -10 -3 -6 4
-10 17 -10 15 0 19 -3 10 -8 -8 -6 -1 -13 23 -22 19 -8 35 -20 35 -27 0 -8 4
-11 10 -8 5 3 10 -1 10 -10 0 -9 5 -13 10 -10 5 3 10 1 10 -4 0 -6 9 -11 21
-11 11 0 18 -3 16 -7 -5 -8 22 -38 33 -38 3 0 4 -3 2 -7 -1 -5 6 -8 16 -8 10
0 25 -9 35 -20 9 -11 22 -20 29 -20 7 0 24 -12 37 -25 12 -14 27 -22 32 -19 5
3 8 0 7 -8 -2 -8 6 -13 19 -12 14 0 25 -7 29 -18 3 -10 14 -18 25 -18 13 0 18
-4 13 -12 -5 -8 -2 -9 9 -5 12 4 17 1 17 -9 0 -10 6 -14 15 -10 9 3 18 -1 21
-9 4 -8 12 -15 18 -15 7 0 22 -9 34 -20 12 -11 23 -20 24 -19 9 6 47 -14 43
-22 -6 -9 -5 -10 31 -14 30 -3 45 -14 38 -27 -4 -7 -2 -8 4 -4 7 4 12 3 12 -2
0 -6 9 -8 20 -5 14 4 20 0 20 -11 0 -14 15 -19 46 -15 3 0 14 -9 23 -20 10
-12 23 -21 29 -21 10 0 92 -40 102 -50 6 -6 30 -12 48 -13 6 0 12 -4 12 -8 0
-7 26 -19 43 -19 13 0 67 -30 67 -38 0 -4 19 -8 42 -9 23 -2 47 -8 52 -14 8
-9 7 -10 -3 -4 -10 6 -12 4 -7 -4 5 -7 14 -10 21 -7 7 2 27 -5 45 -16 18 -10
47 -20 64 -20 17 -1 37 -8 44 -17 11 -13 12 -13 7 -1 -6 13 -5 13 7 0 7 -8 18
-16 24 -17 6 -1 24 -4 39 -7 16 -3 31 -9 34 -13 3 -4 15 -9 26 -10 11 -1 29
-4 40 -7 11 -2 28 -5 38 -5 9 -1 17 -7 17 -13 0 -9 15 -13 43 -12 23 0 48 -4
55 -9 7 -6 15 -7 18 -4 4 3 13 0 21 -8 18 -19 57 -20 48 -2 -4 6 1 3 9 -7 12
-15 16 -16 16 -5 0 12 2 12 9 0 5 -8 16 -11 26 -8 9 4 14 3 10 -2 -7 -12 32
-20 124 -26 41 -3 78 -10 81 -15 4 -6 32 -12 63 -13 31 -1 57 -4 57 -7 0 -3
14 -6 30 -6 17 -1 30 3 30 10 0 8 3 7 8 -1 4 -7 27 -13 50 -14 23 -2 42 -6 42
-10 0 -3 38 -7 85 -7 47 0 86 -1 88 -2 12 -7 57 -3 57 5 0 5 5 3 10 -5 7 -11
10 -11 10 -2 0 9 5 10 16 4 9 -5 34 -6 55 -2 22 4 42 3 45 -2 3 -5 11 -5 18 1
7 6 16 8 19 4 9 -8 131 -8 146 1 6 4 11 4 11 -1 0 -9 52 -9 67 0 6 4 13 4 16
0 10 -9 197 -9 197 0 0 5 5 5 10 2 6 -4 34 -6 63 -6 29 0 69 1 90 1 26 0 36 4
31 12 -5 7 -3 8 6 3 19 -12 60 -13 60 -2 0 5 8 3 17 -4 15 -12 16 -12 8 1 -7
12 -6 13 6 3 12 -10 18 -10 27 -1 8 8 12 8 12 2 0 -12 39 -12 58 -1 7 5 12 3
12 -3 0 -6 5 -8 13 -3 18 11 38 13 31 2 -3 -5 5 -5 19 0 17 7 28 6 36 -2 9 -9
14 -8 21 3 5 8 10 11 10 5 0 -5 11 -10 25 -10 14 0 25 5 25 10 0 6 5 3 10 -5
9 -13 10 -13 10 0 0 9 3 11 8 5 4 -5 14 -10 22 -10 8 0 18 5 22 10 5 6 8 5 8
-3 0 -8 5 -10 12 -6 16 10 50 10 67 0 8 -5 17 -3 22 5 5 8 9 10 9 4 0 -5 11
-10 25 -10 14 0 25 5 25 10 0 6 5 3 10 -5 9 -13 10 -13 10 0 0 9 3 11 8 5 4
-5 14 -10 22 -10 8 0 18 5 22 10 5 6 8 5 8 -3 0 -8 5 -10 12 -6 16 10 50 10
67 0 8 -5 17 -3 22 5 5 8 9 10 9 4 0 -5 11 -10 25 -10 14 0 25 5 25 10 0 6 5
3 10 -5 9 -13 10 -13 10 0 0 9 3 11 8 5 4 -5 14 -10 22 -10 8 0 18 5 22 10 5
6 8 5 8 -3 0 -8 5 -10 12 -6 16 10 50 10 67 0 8 -5 17 -3 22 5 5 8 9 10 9 4 0
-5 11 -10 25 -10 14 0 25 5 25 10 0 6 5 3 10 -5 9 -13 10 -13 10 0 0 9 3 11 8
5 4 -5 14 -10 22 -10 8 0 18 5 22 10 5 6 8 5 8 -3 0 -8 5 -10 12 -6 16 10 50
10 67 0 8 -5 17 -3 22 5 5 8 9 9 9 3 0 -13 42 -13 52 1 5 6 8 4 8 -5 0 -13 1
-13 10 0 7 11 10 11 10 2 0 -10 5 -10 20 -2 11 6 20 7 20 2 0 -11 40 -10 58 1
7 5 12 3 12 -3 0 -6 5 -8 12 -3 19 11 39 13 32 2 -3 -5 5 -5 19 0 17 7 28 6
36 -2 9 -9 14 -8 21 3 5 8 10 10 10 4 0 -13 42 -13 52 1 5 6 8 4 8 -5 0 -13 1
-13 10 0 5 8 10 10 10 5 0 -6 9 -11 20 -11 11 0 20 5 20 11 0 5 4 4 9 -4 6 -9
11 -10 15 -2 5 7 15 7 31 1 18 -7 25 -6 25 3 0 8 4 7 10 -3 9 -13 11 -13 20 0
8 12 10 12 10 1 0 -10 3 -11 14 -2 10 9 16 9 21 1 5 -8 11 -8 19 -1 9 7 17 7
26 -2 10 -9 11 -9 6 1 -7 12 3 16 36 13 10 -1 27 3 39 9 17 10 23 9 30 -1 8
-12 11 -12 18 0 8 12 12 12 24 2 11 -9 17 -9 22 0 6 8 10 7 16 -2 5 -8 9 -9 9
-3 0 7 19 12 46 12 25 1 52 6 60 13 7 6 18 8 23 5 5 -4 12 -2 15 3 4 5 17 8
31 6 14 -1 25 2 25 8 0 5 5 5 13 -2 8 -6 17 -8 21 -4 4 4 19 9 34 11 14 2 33
9 41 15 12 10 13 9 6 -3 -7 -13 -6 -13 11 0 10 9 35 15 56 15 20 0 36 4 35 9
-2 9 18 15 76 23 20 3 37 9 37 14 0 5 7 9 16 9 8 0 12 4 9 10 -4 6 2 7 17 1
18 -7 29 -4 47 10 13 10 27 16 32 13 5 -3 9 -1 9 5 0 6 7 8 15 5 8 -4 15 -2
15 2 0 5 15 15 33 22 17 7 40 18 51 23 14 8 17 7 11 -3 -3 -7 0 -5 8 5 8 9 17
17 22 17 4 0 18 9 32 20 14 11 29 17 33 15 5 -3 11 -1 15 5 4 6 11 8 16 5 5
-4 9 1 9 9 0 9 9 16 20 16 11 0 23 7 26 15 4 8 12 15 19 15 7 0 18 7 25 15 7
9 15 13 18 10 3 -2 13 5 23 17 11 11 19 17 19 12 0 -5 7 0 15 10 8 11 15 16
15 11 0 -5 7 1 16 13 8 12 20 19 26 16 7 -4 8 -2 4 4 -4 7 -2 12 4 12 6 0 8 5
5 10 -4 6 -3 10 2 9 18 -3 34 1 30 8 -2 5 4 16 15 26 10 9 18 14 18 10 0 -5 5
0 11 10 6 9 15 14 21 11 7 -5 9 -2 5 9 -3 9 1 21 11 29 13 11 15 11 8 -2 -4
-8 1 -4 11 10 10 14 29 36 43 50 14 14 25 27 25 30 1 14 33 49 40 42 4 -4 4 4
0 17 -6 20 -4 23 9 18 14 -6 21 3 17 26 0 4 3 7 8 7 5 0 14 14 21 30 7 17 16
30 21 30 5 0 6 6 3 14 -3 7 2 16 10 19 9 4 13 15 11 27 -2 12 1 20 10 20 7 0
16 7 19 16 3 8 2 12 -4 9 -5 -3 -2 7 7 24 10 16 20 28 23 26 3 -2 6 4 7 13 3
61 8 82 20 78 7 -3 10 1 7 8 -3 8 -1 17 5 20 5 4 8 18 5 31 -2 14 0 25 5 25 5
0 11 9 14 21 4 14 2 18 -7 12 -6 -4 -3 0 7 9 12 12 15 18 6 18 -8 0 -5 6 7 16
10 8 14 13 9 10 -7 -3 -11 15 -10 49 0 29 4 51 8 48 5 -3 8 3 7 13 -4 33 0 45
10 39 7 -4 7 3 0 19 -7 19 -6 26 2 26 6 0 8 3 5 7 -4 3 -1 13 6 21 6 9 7 13 1
9 -7 -4 -11 6 -11 28 0 19 5 32 10 28 5 -3 4 4 -2 16 -9 16 -9 21 1 21 9 0 10
2 2 8 -14 8 -13 54 1 64 6 5 6 8 -1 8 -6 0 -11 7 -11 15 0 8 5 15 11 15 6 0 5
4 -2 9 -17 11 -17 21 0 32 7 5 8 9 2 9 -6 0 -11 7 -11 15 0 8 5 15 10 15 5 0
3 8 -4 17 -12 15 -12 16 1 8 13 -8 13 -7 1 8 -11 14 -11 20 -1 32 7 8 8 15 3
15 -5 0 -9 9 -10 20 -1 11 4 20 10 20 7 0 6 4 -3 10 -8 5 -11 10 -7 10 4 0 3
10 -4 21 -8 15 -8 19 0 15 8 -5 8 0 2 16 -4 13 -7 33 -6 46 1 12 -2 22 -7 22
-4 0 -8 5 -8 11 0 5 6 7 13 3 8 -6 8 -3 -2 9 -8 10 -12 34 -10 60 3 35 1 43
-10 39 -11 -4 -11 -1 -2 16 11 20 8 26 -11 23 -4 0 -5 6 -1 15 3 9 0 19 -7 24
-9 6 -9 12 0 30 8 15 8 20 1 16 -11 -7 -15 6 -12 33 2 7 -2 10 -7 7 -12 -7
-20 11 -17 41 1 13 -2 23 -7 23 -4 0 -7 3 -7 8 3 18 -2 33 -9 28 -8 -5 -10 1
-14 44 -1 11 -6 20 -11 20 -4 0 -5 5 -2 10 4 6 1 9 -6 8 -7 -2 -13 2 -14 9 0
6 -3 14 -6 17 -6 6 -4 43 3 77 4 19 22 38 31 32 4 -2 7 1 7 6 0 6 -6 11 -12
11 -10 0 -9 3 1 9 8 6 11 16 6 31 -5 14 -3 20 3 16 15 -9 41 48 30 67 -5 10
-4 18 2 22 6 4 8 10 5 15 -3 4 2 10 10 14 8 3 15 13 15 21 0 9 4 14 8 11 4 -2
8 4 8 15 0 10 -4 19 -9 19 -4 0 -2 6 5 14 7 8 16 12 20 10 4 -3 5 5 3 16 -2
11 1 20 8 20 8 0 8 3 -1 12 -9 9 -8 16 6 32 11 13 12 16 3 11 -10 -5 -7 2 5
21 12 16 20 41 19 57 -1 15 3 27 8 27 6 0 7 3 4 7 -4 3 1 12 11 20 9 8 12 12
5 9 -7 -4 -11 1 -10 13 0 11 4 18 8 15 12 -7 17 20 7 39 -6 11 -5 17 3 17 6 0
9 7 5 15 -3 8 -1 15 4 15 9 0 26 93 22 117 -2 7 3 13 9 13 7 0 9 3 6 7 -4 3
-2 12 5 20 9 11 7 12 -8 7 -16 -6 -16 -4 4 15 23 23 30 37 11 25 -8 -4 -8 -1
-1 12 5 11 9 38 8 62 -1 23 2 42 6 42 4 0 5 9 3 20 -2 11 0 18 6 15 5 -4 9 1
9 10 0 10 5 13 13 9 8 -5 8 -2 -2 9 -11 14 -11 20 -1 32 7 8 8 15 3 15 -11 0
-11 29 1 48 4 6 3 12 -1 12 -10 0 -10 47 0 56 3 4 2 15 -4 25 -5 11 -6 19 -2
19 4 0 9 23 11 52 1 29 8 56 15 60 7 5 8 8 1 8 -6 0 -11 7 -11 15 0 8 3 12 7
10 10 -6 12 66 11 445 0 355 -1 365 -15 389 -7 10 -6 12 4 6 10 -6 11 -4 4 6
-10 17 -15 43 -17 91 -1 21 -6 38 -11 38 -5 0 -3 7 4 15 8 10 9 15 1 15 -7 0
-8 8 -1 25 5 14 6 25 1 25 -7 0 -8 24 -1 55 1 6 1 12 0 15 -1 3 -3 23 -6 44
-2 22 -11 47 -20 58 -14 14 -14 18 -3 18 8 0 10 3 4 8 -12 9 -12 42 -1 61 7
10 5 12 -4 6 -10 -6 -12 -3 -8 13 4 13 1 22 -5 22 -6 0 -7 3 -4 7 4 3 1 13 -6
21 -10 13 -9 14 3 7 9 -5 7 1 -5 15 -12 14 -14 20 -5 15 13 -8 13 -7 1 8 -8
10 -11 20 -8 24 4 3 2 12 -4 20 -9 10 -8 13 2 13 10 0 10 3 2 11 -6 6 -9 18
-6 25 3 8 0 14 -7 14 -6 0 -9 4 -6 8 3 5 -1 20 -9 35 -10 19 -10 27 -2 31 9 3
9 5 0 5 -7 1 -10 7 -7 15 3 8 0 17 -6 21 -8 5 -8 11 1 21 10 12 9 13 -4 8 -12
-4 -15 -1 -12 15 2 12 0 21 -4 21 -5 0 -7 11 -6 25 2 14 -1 25 -6 25 -6 0 -7
5 -4 10 3 6 0 17 -8 25 -8 8 -15 31 -15 52 0 20 -5 39 -11 41 -6 2 -9 8 -5 13
3 5 -3 9 -13 9 -15 0 -16 2 -3 10 8 5 10 10 4 10 -6 0 -10 14 -9 30 2 27 -5
35 -28 31 -4 -1 -6 17 -3 39 3 22 1 40 -5 40 -5 0 -9 7 -9 16 0 8 -4 13 -8 10
-8 -5 -10 2 -13 42 -1 9 -11 28 -23 41 -11 13 -14 20 -6 16 13 -8 13 -6 2 8
-8 9 -11 21 -7 27 3 5 -1 13 -9 16 -9 3 -13 10 -10 15 3 5 1 9 -4 9 -6 0 -13
7 -16 16 -3 8 -2 13 2 10 5 -3 9 1 9 9 0 8 -3 12 -7 10 -9 -5 -34 45 -31 62 1
6 -7 17 -17 25 -10 7 -19 23 -19 36 -1 12 -9 29 -17 38 -9 9 -14 20 -11 25 4
5 1 9 -4 9 -6 0 -10 4 -8 9 1 5 -7 17 -18 26 -11 9 -13 13 -5 9 13 -7 13 -5 1
9 -7 9 -10 17 -6 17 5 0 -5 11 -21 25 -16 14 -23 25 -16 25 10 0 10 4 0 20 -7
11 -20 20 -28 20 -13 0 -13 1 0 10 10 6 11 10 3 10 -7 0 -12 3 -12 8 3 19 -2
33 -11 27 -9 -6 -14 8 -11 29 1 4 -7 16 -19 26 -11 9 -20 22 -20 28 0 6 -8 17
-18 24 -11 7 -18 23 -17 36 1 12 -4 22 -10 22 -7 0 -18 13 -25 30 -7 16 -16
27 -21 24 -5 -3 -9 2 -9 10 0 8 -10 25 -23 37 -12 12 -15 18 -7 14 9 -5 7 1
-5 15 -11 13 -24 30 -30 38 -5 7 -20 24 -32 37 -13 13 -23 29 -23 36 0 6 -14
24 -30 39 -17 16 -31 31 -30 34 1 21 -2 26 -14 26 -8 0 -18 9 -21 20 -4 11
-11 17 -17 14 -6 -4 -9 -1 -6 7 3 8 -9 26 -25 42 -16 15 -26 27 -21 27 4 0
-11 18 -34 39 -22 21 -38 42 -35 45 4 3 0 6 -9 6 -16 0 -58 44 -58 61 0 5 -4
7 -10 4 -5 -3 -10 3 -10 14 0 12 -3 20 -8 18 -9 -3 -58 46 -55 55 2 5 -4 8
-13 8 -8 0 -13 4 -10 9 3 5 -4 11 -15 14 -13 4 -18 10 -13 18 4 7 3 10 -4 5
-6 -3 -16 3 -22 14 -6 11 -18 20 -26 20 -8 0 -12 4 -9 10 3 5 -6 15 -20 22
-18 8 -22 14 -13 20 9 5 6 8 -9 8 -14 0 -23 6 -23 16 0 8 -4 12 -10 9 -5 -3
-10 -1 -10 4 0 6 -7 11 -16 11 -8 0 -13 3 -11 8 6 9 -19 33 -27 25 -3 -4 -6 1
-6 10 0 9 -7 17 -15 17 -8 0 -15 5 -15 10 0 6 -9 10 -20 10 -13 0 -17 5 -14
14 3 9 -3 17 -15 21 -12 3 -21 11 -21 16 0 5 -5 9 -11 9 -6 0 -20 10 -31 23
-11 12 -16 16 -12 8 5 -9 3 -12 -4 -7 -7 4 -12 14 -12 22 0 8 -4 13 -9 10 -5
-3 -14 1 -21 9 -7 8 -19 15 -27 15 -8 0 -12 4 -9 9 3 5 -4 11 -15 14 -13 4
-18 10 -13 18 4 7 3 10 -4 5 -6 -3 -18 4 -26 16 -9 12 -16 17 -16 10 0 -14
-10 -8 -58 38 -15 14 -30 27 -34 28 -39 14 -67 29 -63 34 3 3 -8 11 -25 18
-16 7 -30 16 -30 21 0 5 -6 9 -14 9 -8 0 -38 16 -67 35 -30 19 -59 35 -65 35
-7 0 -14 7 -18 15 -3 8 -15 15 -27 15 -12 0 -30 9 -40 21 -10 11 -22 18 -27
15 -4 -3 -16 4 -25 15 -10 11 -22 17 -27 14 -6 -3 -10 -1 -10 4 0 6 -3 10 -7
9 -16 -4 -53 14 -48 23 3 5 -1 6 -9 3 -9 -3 -16 -2 -16 4 0 5 -10 13 -22 17
-13 4 -26 8 -30 10 -5 1 -18 3 -30 4 -12 0 -19 4 -15 7 11 11 -17 31 -38 26
-12 -2 -29 4 -38 13 -9 9 -26 18 -38 20 -12 2 -27 9 -35 15 -7 7 -19 8 -25 4
-8 -4 -9 -3 -5 4 5 8 -2 12 -18 12 -14 0 -28 -1 -30 -2 -3 -2 -15 7 -28 18
-13 13 -32 20 -45 18 -18 -3 -21 0 -16 14 6 15 5 15 -10 3 -14 -11 -18 -11
-23 2 -4 11 -17 14 -45 13 -22 -2 -43 2 -46 7 -3 6 -1 7 5 3 7 -4 12 -2 12 3
0 10 -74 28 -92 23 -5 -1 -8 3 -8 9 0 5 -4 8 -9 4 -5 -3 -13 0 -16 6 -4 5 -13
8 -21 5 -8 -3 -14 -2 -14 2 0 4 -12 9 -27 10 -15 1 -29 6 -32 11 -7 10 -74 24
-110 22 -13 -1 -33 7 -44 16 -13 11 -17 12 -12 4 7 -11 4 -11 -14 1 -12 9 -31
14 -42 11 -10 -3 -19 -1 -19 5 0 5 -10 10 -22 11 -43 1 -58 4 -58 13 0 4 -5 8
-11 8 -5 0 -7 -5 -3 -11 4 -8 1 -8 -12 -1 -11 5 -39 9 -64 8 -25 -1 -51 3 -57
7 -7 5 -20 7 -28 3 -9 -3 -18 0 -21 8 -3 8 -13 13 -22 11 -9 -1 -29 1 -44 6
-17 5 -28 4 -28 -2 0 -6 -5 -7 -11 -3 -12 7 -43 11 -107 13 -24 1 -31 5 -26
14 6 9 4 9 -8 -1 -13 -10 -17 -10 -21 0 -4 11 -6 11 -6 0 -1 -9 -6 -10 -18 -3
-23 12 -49 12 -420 14 -212 1 -310 5 -305 12 3 5 -2 4 -11 -4 -15 -12 -17 -11
-17 5 0 16 -2 17 -10 4 -5 -8 -10 -10 -10 -4 0 6 -6 11 -12 11 -7 0 -22 4 -32
9 -13 5 -17 4 -12 -4 4 -7 -4 -5 -21 3 -18 10 -31 11 -39 4 -8 -7 -14 -7 -19
1 -3 5 -11 10 -16 10 -6 0 -7 -6 -3 -12 5 -8 1 -7 -10 2 -10 8 -25 16 -35 18
-40 8 -71 12 -136 16 -38 3 -72 6 -75 7 -3 1 -8 1 -12 0 -5 0 -8 5 -8 12 0 8
-4 7 -10 -3 -8 -12 -11 -13 -19 -1 -6 10 -10 10 -16 1 -5 -8 -11 -6 -22 7 -8
10 -12 13 -9 7 3 -7 -1 -15 -10 -18 -8 -3 -13 -2 -10 3 7 10 -39 12 -294 14
-127 1 -208 5 -212 12 -5 6 -8 5 -8 -4z"/>
<path d="M9029 6648 c-1 -13 -1 -29 0 -37 2 -8 -2 -10 -10 -5 -8 5 -9 3 -3 -7
12 -19 14 -39 4 -39 -9 0 -8 -19 3 -37 4 -6 2 -15 -4 -19 -8 -5 -9 -3 -4 6 5
8 4 11 -3 6 -7 -4 -8 -17 -2 -35 5 -19 4 -33 -3 -41 -9 -10 -9 -11 -1 -7 15 9
27 -20 12 -29 -7 -5 -8 -2 -3 6 6 9 4 11 -4 5 -9 -5 -10 -10 -2 -18 13 -13 15
-31 3 -23 -4 2 -8 -4 -8 -14 0 -12 6 -16 16 -12 12 4 12 2 3 -8 -6 -7 -9 -19
-6 -28 5 -11 3 -13 -8 -7 -8 5 -6 0 4 -12 14 -16 15 -23 6 -29 -8 -5 -10 -3
-4 6 5 8 4 11 -3 6 -7 -4 -8 -17 -2 -35 5 -19 4 -33 -3 -41 -9 -8 -8 -10 6 -5
21 9 22 1 1 -19 -14 -15 -14 -16 0 -16 19 0 20 -5 5 -32 -9 -16 -8 -19 2 -13
9 6 11 2 7 -13 -4 -12 -2 -22 3 -22 5 0 9 125 9 295 0 162 -2 295 -5 295 -3 0
-6 -10 -6 -22z"/>
<path d="M9026 6043 c10 -40 14 -41 14 -5 0 18 -5 32 -10 32 -6 0 -8 -11 -4
-27z"/>
</g>
</svg>
